<?xml version="1.0" encoding="UTF-8"?>
<svg width="500px" height="500px" viewBox="0 0 500 500" version="1.1" xmlns="http://www.w3.org/2000/svg" xmlns:xlink="http://www.w3.org/1999/xlink">
    <!-- Generator: Sketch 42 (36781) - http://www.bohemiancoding.com/sketch -->
    <title>Artboard Copy</title>
    <desc>Created with Sketch.</desc>
    <defs>
        <rect id="path-1" x="0" y="0" width="500" height="500"></rect>
        <path d="M0.569619423,7.1380529 C0.255027302,3.19581514 5.37458505,0 12.0077388,0 L154.492261,0 C161.123952,0 166.244695,3.19929362 165.930381,7.1380529 L160.333182,77.2780449 C158.148043,104.660597 123.645607,126.858541 83.25,126.858541 C42.8632727,126.858541 8.35132066,104.652626 6.16681832,77.2780449 L0.569619423,7.1380529 Z" id="path-3"></path>
    </defs>
    <g id="Page-1" stroke="none" stroke-width="1" fill="none" fill-rule="evenodd">
        <g id="Artboard-Copy">
            <g id="Group-6">
                <mask id="mask-2" fill="white">
                    <use xlink:href="#path-1"></use>
                </mask>
                <g id="Mask"></g>
                <g mask="url(#mask-2)">
                    <g transform="translate(30.000000, 31.000000)">
                        <circle id="Oval-5" fill-opacity="0.05" fill="#000000" cx="220" cy="314" r="145"></circle>
                        <path d="M224.242225,390 C381.912536,390 354.27479,549.090874 354.27479,549.090874 C353.570743,555.115818 348.076661,560 341.993364,560 L103.006636,560 C96.9278389,560 91.4337939,555.118266 90.9467033,549.058337 C90.9467033,549.058337 66.5719136,390 224.242225,390 Z" id="Rectangle-5" fill="#3A3A3A"></path>
                        <g id="Group-5" stroke-width="1" fill="none">
                            <g id="Group-3">
                                <ellipse id="Oval-Copy" fill="#3A3A3A" cx="222" cy="201.984321" rx="210" ry="188.468641"></ellipse>
                                <g id="Group-2" fill="#3A3A3A">
                                    <ellipse id="Oval-Copy-10" cx="143.25" cy="367.175958" rx="18.75" ry="18.771777"></ellipse>
                                    <ellipse id="Oval-Copy-11" cx="90.75" cy="338.642857" rx="18.75" ry="18.771777"></ellipse>
                                    <ellipse id="Oval-Copy-13" cx="69.75" cy="317.618467" rx="18.75" ry="18.771777"></ellipse>
                                    <ellipse id="Oval-Copy-14" cx="50.25" cy="296.594077" rx="18.75" ry="18.771777"></ellipse>
                                    <ellipse id="Oval-Copy-15" cx="33.75" cy="271.06446" rx="18.75" ry="18.771777"></ellipse>
                                    <ellipse id="Oval-Copy-16" cx="21.75" cy="247.787456" rx="18.75" ry="18.0209059"></ellipse>
                                    <ellipse id="Oval-Copy-17" cx="18.75" cy="223.759582" rx="18.75" ry="18.0209059"></ellipse>
                                    <ellipse id="Oval-Copy-18" cx="18.75" cy="199.731707" rx="18.75" ry="18.0209059"></ellipse>
                                    <ellipse id="Oval-Copy-19" cx="23.25" cy="174.202091" rx="18.75" ry="18.0209059"></ellipse>
                                    <ellipse id="Oval-Copy-20" cx="30.75" cy="153.1777" rx="18.75" ry="18.0209059"></ellipse>
                                    <ellipse id="Oval-Copy-21" cx="38.25" cy="133.655052" rx="18.75" ry="18.0209059"></ellipse>
                                    <ellipse id="Oval-Copy-22" cx="45.75" cy="112.630662" rx="18.75" ry="18.0209059"></ellipse>
                                    <ellipse id="Oval-Copy-23" cx="62.25" cy="90.1045296" rx="18.75" ry="18.0209059"></ellipse>
                                    <ellipse id="Oval-Copy-24" cx="78.75" cy="69.0801394" rx="18.75" ry="18.0209059"></ellipse>
                                    <ellipse id="Oval-Copy-25" cx="104.25" cy="54.0627178" rx="18.75" ry="18.0209059"></ellipse>
                                    <ellipse id="Oval-Copy-26" cx="132" cy="40.5470383" rx="19.5" ry="18.0209059"></ellipse>
                                    <ellipse id="Oval-Copy-27" cx="154.5" cy="31.5365854" rx="19.5" ry="18.0209059"></ellipse>
                                    <ellipse id="Oval-Copy-28" cx="183" cy="22.5261324" rx="19.5" ry="18.0209059"></ellipse>
                                    <ellipse id="Oval-Copy-29" cx="206.25" cy="18.0209059" rx="20.25" ry="18.0209059"></ellipse>
                                    <ellipse id="Oval-Copy-12" cx="114.75" cy="355.162021" rx="18.75" ry="18.771777"></ellipse>
                                </g>
                                <g id="Group-2-Copy" transform="translate(327.750000, 192.973868) scale(-1, 1) translate(-327.750000, -192.973868) translate(214.500000, 0.000000)" fill="#3A3A3A">
                                    <ellipse id="Oval-Copy-10" cx="143.25" cy="367.175958" rx="18.75" ry="18.771777"></ellipse>
                                    <ellipse id="Oval-Copy-11" cx="90.75" cy="338.642857" rx="18.75" ry="18.771777"></ellipse>
                                    <ellipse id="Oval-Copy-13" cx="69.75" cy="317.618467" rx="18.75" ry="18.771777"></ellipse>
                                    <ellipse id="Oval-Copy-14" cx="50.25" cy="296.594077" rx="18.75" ry="18.771777"></ellipse>
                                    <ellipse id="Oval-Copy-15" cx="33.75" cy="271.06446" rx="18.75" ry="18.771777"></ellipse>
                                    <ellipse id="Oval-Copy-16" cx="21.75" cy="247.787456" rx="18.75" ry="18.0209059"></ellipse>
                                    <ellipse id="Oval-Copy-17" cx="18.75" cy="223.759582" rx="18.75" ry="18.0209059"></ellipse>
                                    <ellipse id="Oval-Copy-18" cx="18.75" cy="199.731707" rx="18.75" ry="18.0209059"></ellipse>
                                    <ellipse id="Oval-Copy-19" cx="23.25" cy="174.202091" rx="18.75" ry="18.0209059"></ellipse>
                                    <ellipse id="Oval-Copy-20" cx="30.75" cy="153.1777" rx="18.75" ry="18.0209059"></ellipse>
                                    <ellipse id="Oval-Copy-21" cx="38.25" cy="133.655052" rx="18.75" ry="18.0209059"></ellipse>
                                    <ellipse id="Oval-Copy-22" cx="45.75" cy="112.630662" rx="18.75" ry="18.0209059"></ellipse>
                                    <ellipse id="Oval-Copy-23" cx="62.25" cy="90.1045296" rx="18.75" ry="18.0209059"></ellipse>
                                    <ellipse id="Oval-Copy-24" cx="78.75" cy="69.0801394" rx="18.75" ry="18.0209059"></ellipse>
                                    <ellipse id="Oval-Copy-25" cx="104.25" cy="54.0627178" rx="18.75" ry="18.0209059"></ellipse>
                                    <ellipse id="Oval-Copy-26" cx="132" cy="40.5470383" rx="19.5" ry="18.0209059"></ellipse>
                                    <ellipse id="Oval-Copy-27" cx="154.5" cy="31.5365854" rx="19.5" ry="18.0209059"></ellipse>
                                    <ellipse id="Oval-Copy-28" cx="183" cy="22.5261324" rx="19.5" ry="18.0209059"></ellipse>
                                    <ellipse id="Oval-Copy-29" cx="206.25" cy="18.0209059" rx="20.25" ry="18.0209059"></ellipse>
                                    <ellipse id="Oval-Copy-12" cx="114.75" cy="355.162021" rx="18.75" ry="18.771777"></ellipse>
                                </g>
                                <path d="M135.014629,260.567765 C134.680061,255.168174 140.124699,250.790941 147.179042,250.790941 L298.71099,250.790941 C305.763777,250.790941 311.209675,255.172939 310.875402,260.567765 L304.922795,356.636875 C304.922795,402.080461 272.603783,424.546123 222.945016,424.546123 C173.286248,424.546123 140.967237,400.651974 140.967237,356.636875 L135.014629,260.567765 Z" id="Rectangle-Copy-2" fill="#3A3A3A"></path>
                                <path d="M140.069619,259.984026 C139.755027,254.906825 144.874585,250.790941 151.507739,250.790941 L293.992261,250.790941 C300.623952,250.790941 305.744695,254.911305 305.430381,259.984026 L299.833182,350.317197 C297.648043,385.583136 263.145607,414.171828 222.75,414.171828 C182.363273,414.171828 147.851321,385.572871 145.666818,350.317197 L140.069619,259.984026 Z" id="Rectangle" fill="#A67A5E"></path>
                                <g id="Oval-2" transform="translate(139.500000, 250.790941)">
                                    <mask id="mask-4" fill="white">
                                        <use xlink:href="#path-3"></use>
                                    </mask>
                                    <use id="Mask" fill="#BD8A6B" xlink:href="#path-3"></use>
                                    <ellipse fill="#B18164" mask="url(#mask-4)" cx="125.25" cy="76.8493565" rx="93.75" ry="128.950615"></ellipse>
                                </g>
                                <g id="Group-4" transform="translate(192.000000, 367.926829)">
                                    <path d="M0,12.5373183 C0,10.0524226 1.9090793,7.40056823 4.27322259,6.63330462 C4.27322259,6.63330462 23.4946132,0 32.3742704,0 C41.2539276,0 58.7615288,6.54026336 58.7615288,6.54026336 C61.1023718,7.36744963 63,10.0561723 63,12.5373183 L63,48.4558632 L54.1090201,58.7673218 C52.4855138,60.6502096 49.1515431,62.1765918 46.672849,62.1765918 L17.1251134,62.1765918 C14.6417358,62.1765918 11.2650845,60.695197 9.58763495,58.872675 L0,48.4558632 L0,12.5373183 Z" id="Rectangle-2" fill="#3A3A3A"></path>
                                    <path d="M12,13.2005431 C12,12.3691024 12.6493204,11.4987841 13.4363568,11.2667447 C13.4363568,11.2667447 25.5261738,7.5087108 32.25,7.5087108 C38.9738262,7.5087108 51.0769872,11.2706363 51.0769872,11.2706363 C51.8628955,11.5050537 52.5,12.3578325 52.5,13.2005431 L52.5,18.6109008 C52.5,24.7440736 47.533905,29.7159926 41.3930272,29.7159926 L23.1069728,29.7159926 C16.9727611,29.7159926 12,24.7439968 12,18.6109008 L12,13.2005431 Z" id="Rectangle-3" fill="#B08064"></path>
                                    <path d="M25.0951535,29.2443772 C25.3187441,28.0221609 26.5024733,27.0313589 27.7571082,27.0313589 L35.2428918,27.0313589 C36.4894582,27.0313589 37.6829122,28.0312147 37.9048465,29.2443772 L37.9193333,29.323567 C38.1429239,30.5457833 37.3205833,31.5365854 36.0704308,31.5365854 L26.9295692,31.5365854 C25.684858,31.5365854 24.8587324,30.5367296 25.0806667,29.323567 L25.0951535,29.2443772 Z" id="Rectangle-4" fill="#3A3A3A"></path>
                                </g>
                                <ellipse id="Oval-3" fill="#373738" cx="180.75" cy="317.618467" rx="9.75" ry="9.76132404"></ellipse>
                                <ellipse id="Oval-3-Copy" fill="#373738" cx="260.25" cy="317.618467" rx="9.75" ry="9.76132404"></ellipse>
                                <g id="Group" transform="translate(129.000000, 234.271777)" fill="#3A3A3A">
                                    <ellipse id="Oval" cx="93.75" cy="26.2804878" rx="18.75" ry="18.771777"></ellipse>
                                    <ellipse id="Oval-Copy-2" cx="78" cy="16.5191638" rx="15" ry="15.0174216"></ellipse>
                                    <ellipse id="Oval-Copy-4" cx="154.5" cy="16.5191638" rx="15" ry="15.0174216"></ellipse>
                                    <ellipse id="Oval-Copy-5" cx="31.5" cy="16.5191638" rx="15" ry="15.0174216"></ellipse>
                                    <ellipse id="Oval-Copy-6" cx="54.75" cy="11.2630662" rx="11.25" ry="11.2630662"></ellipse>
                                    <ellipse id="Oval-Copy-8" cx="11.25" cy="24.7787456" rx="11.25" ry="11.2630662"></ellipse>
                                    <ellipse id="Oval-Copy-9" cx="176.25" cy="23.2770035" rx="11.25" ry="11.2630662"></ellipse>
                                    <ellipse id="Oval-Copy-7" cx="131.25" cy="11.2630662" rx="11.25" ry="11.2630662"></ellipse>
                                    <ellipse id="Oval-Copy-3" cx="108" cy="16.5191638" rx="15" ry="15.0174216"></ellipse>
                                </g>
                            </g>
                            <ellipse id="Oval-4" fill="#BD8A6B" cx="142.5" cy="316.867596" rx="15" ry="15.0174216"></ellipse>
                            <ellipse id="Oval-4-Copy" fill="#B18164" cx="303" cy="316.867596" rx="15" ry="15.0174216"></ellipse>
                            <path d="M137.505212,308.026279 C143.505212,308.026279 142.641742,307.998822 142.641742,301.363707 C142.641742,294.728593 137.127417,289.836237 130.5,289.836237 C123.872583,289.836237 127.116294,317.554682 127.116294,317.554682 C127.116294,317.554682 128.915249,308.026279 130.5,308.026279 C133.514118,308.026279 134.173364,308.026279 137.505212,308.026279 Z" id="Oval-Copy-30" fill="#3A3A3A"></path>
                            <path d="M314.182625,306.524537 C320.182625,306.524537 319.319156,306.497079 319.319156,299.861965 C319.319156,293.226851 313.804831,288.334495 307.177414,288.334495 C300.549997,288.334495 303.793707,316.05294 303.793707,316.05294 C303.793707,316.05294 305.592663,306.524537 307.177414,306.524537 C310.191532,306.524537 310.850778,306.524537 314.182625,306.524537 Z" id="Oval-Copy-31" fill="#3A3A3A" transform="translate(311.181143, 302.193718) scale(-1, 1) translate(-311.181143, -302.193718) "></path>
                        </g>
                    </g>
                </g>
            </g>
        </g>
    </g>
</svg>