<?xml version="1.0" encoding="UTF-8"?>
<svg width="46px" height="52px" viewBox="0 0 46 52" version="1.1" xmlns="http://www.w3.org/2000/svg" xmlns:xlink="http://www.w3.org/1999/xlink">
    <!-- Generator: Sketch 42 (36781) - http://www.bohemiancoding.com/sketch -->
    <title>Group 6</title>
    <desc>Created with Sketch.</desc>
    <defs>
        <path d="M0.0594160849,0.75646262 C0.0266014873,0.338679851 0.560614314,0 1.2525079,0 L16.114839,0 C16.80658,0 17.3407165,0.339048487 17.3079309,0.75646262 L16.724096,8.18962162 C16.4961678,11.0915162 12.8972742,13.4439665 8.68367347,13.4439665 C4.47099896,13.4439665 0.871112812,11.0906715 0.64325089,8.18962162 L0.0594160849,0.75646262 Z" id="path-1"></path>
    </defs>
    <g id="Page-1" stroke="none" stroke-width="1" fill="none" fill-rule="evenodd">
        <g id="Desktop-HD" transform="translate(-697.000000, -75.000000)">
            <g id="Group-6" transform="translate(697.000000, 75.000000)">
                <ellipse id="Oval-5" fill="#FCFDFC" cx="22.6515152" cy="36.5405405" rx="14.9848485" ry="15.4594595"></ellipse>
                <g id="Group-5">
                    <g id="Group-3">
                        <ellipse id="Oval-Copy" fill="#3A3A3A" cx="23.1564626" cy="21.4054996" rx="21.9047619" ry="19.9731613"></ellipse>
                        <g id="Group-2" fill="#3A3A3A">
                            <ellipse id="Oval-Copy-10" cx="14.9421769" cy="38.9118561" rx="1.95578231" ry="1.9893587"></ellipse>
                            <ellipse id="Oval-Copy-11" cx="9.46598639" cy="35.8880309" rx="1.95578231" ry="1.9893587"></ellipse>
                            <ellipse id="Oval-Copy-13" cx="7.2755102" cy="33.6599491" rx="1.95578231" ry="1.9893587"></ellipse>
                            <ellipse id="Oval-Copy-14" cx="5.2414966" cy="31.4318674" rx="1.95578231" ry="1.9893587"></ellipse>
                            <ellipse id="Oval-Copy-15" cx="3.52040816" cy="28.7263396" rx="1.95578231" ry="1.9893587"></ellipse>
                            <ellipse id="Oval-Copy-16" cx="2.26870748" cy="26.2595348" rx="1.95578231" ry="1.90978435"></ellipse>
                            <ellipse id="Oval-Copy-17" cx="1.95578231" cy="23.7131557" rx="1.95578231" ry="1.90978435"></ellipse>
                            <ellipse id="Oval-Copy-18" cx="1.95578231" cy="21.1667765" rx="1.95578231" ry="1.90978435"></ellipse>
                            <ellipse id="Oval-Copy-19" cx="2.42517007" cy="18.4612487" rx="1.95578231" ry="1.90978435"></ellipse>
                            <ellipse id="Oval-Copy-20" cx="3.20748299" cy="16.233167" rx="1.95578231" ry="1.90978435"></ellipse>
                            <ellipse id="Oval-Copy-21" cx="3.98979592" cy="14.1642339" rx="1.95578231" ry="1.90978435"></ellipse>
                            <ellipse id="Oval-Copy-22" cx="4.77210884" cy="11.9361522" rx="1.95578231" ry="1.90978435"></ellipse>
                            <ellipse id="Oval-Copy-23" cx="6.49319728" cy="9.54892174" rx="1.95578231" ry="1.90978435"></ellipse>
                            <ellipse id="Oval-Copy-24" cx="8.21428571" cy="7.32084" rx="1.95578231" ry="1.90978435"></ellipse>
                            <ellipse id="Oval-Copy-25" cx="10.8741497" cy="5.72935305" rx="1.95578231" ry="1.90978435"></ellipse>
                            <ellipse id="Oval-Copy-26" cx="13.7687075" cy="4.29701478" rx="2.03401361" ry="1.90978435"></ellipse>
                            <ellipse id="Oval-Copy-27" cx="16.1156463" cy="3.34212261" rx="2.03401361" ry="1.90978435"></ellipse>
                            <ellipse id="Oval-Copy-28" cx="19.0884354" cy="2.38723044" rx="2.03401361" ry="1.90978435"></ellipse>
                            <ellipse id="Oval-Copy-29" cx="21.5136054" cy="1.90978435" rx="2.1122449" ry="1.90978435"></ellipse>
                            <ellipse id="Oval-Copy-12" cx="11.9693878" cy="37.6386665" rx="1.95578231" ry="1.9893587"></ellipse>
                        </g>
                        <g id="Group-2-Copy" transform="translate(34.000000, 20.500000) scale(-1, 1) translate(-34.000000, -20.500000) translate(22.000000, 0.000000)" fill="#3A3A3A">
                            <ellipse id="Oval-Copy-10" cx="14.9421769" cy="38.9118561" rx="1.95578231" ry="1.9893587"></ellipse>
                            <ellipse id="Oval-Copy-11" cx="9.46598639" cy="35.8880309" rx="1.95578231" ry="1.9893587"></ellipse>
                            <ellipse id="Oval-Copy-13" cx="7.2755102" cy="33.6599491" rx="1.95578231" ry="1.9893587"></ellipse>
                            <ellipse id="Oval-Copy-14" cx="5.2414966" cy="31.4318674" rx="1.95578231" ry="1.9893587"></ellipse>
                            <ellipse id="Oval-Copy-15" cx="3.52040816" cy="28.7263396" rx="1.95578231" ry="1.9893587"></ellipse>
                            <ellipse id="Oval-Copy-16" cx="2.26870748" cy="26.2595348" rx="1.95578231" ry="1.90978435"></ellipse>
                            <ellipse id="Oval-Copy-17" cx="1.95578231" cy="23.7131557" rx="1.95578231" ry="1.90978435"></ellipse>
                            <ellipse id="Oval-Copy-18" cx="1.95578231" cy="21.1667765" rx="1.95578231" ry="1.90978435"></ellipse>
                            <ellipse id="Oval-Copy-19" cx="2.42517007" cy="18.4612487" rx="1.95578231" ry="1.90978435"></ellipse>
                            <ellipse id="Oval-Copy-20" cx="3.20748299" cy="16.233167" rx="1.95578231" ry="1.90978435"></ellipse>
                            <ellipse id="Oval-Copy-21" cx="3.98979592" cy="14.1642339" rx="1.95578231" ry="1.90978435"></ellipse>
                            <ellipse id="Oval-Copy-22" cx="4.77210884" cy="11.9361522" rx="1.95578231" ry="1.90978435"></ellipse>
                            <ellipse id="Oval-Copy-23" cx="6.49319728" cy="9.54892174" rx="1.95578231" ry="1.90978435"></ellipse>
                            <ellipse id="Oval-Copy-24" cx="8.21428571" cy="7.32084" rx="1.95578231" ry="1.90978435"></ellipse>
                            <ellipse id="Oval-Copy-25" cx="10.8741497" cy="5.72935305" rx="1.95578231" ry="1.90978435"></ellipse>
                            <ellipse id="Oval-Copy-26" cx="13.7687075" cy="4.29701478" rx="2.03401361" ry="1.90978435"></ellipse>
                            <ellipse id="Oval-Copy-27" cx="16.1156463" cy="3.34212261" rx="2.03401361" ry="1.90978435"></ellipse>
                            <ellipse id="Oval-Copy-28" cx="19.0884354" cy="2.38723044" rx="2.03401361" ry="1.90978435"></ellipse>
                            <ellipse id="Oval-Copy-29" cx="21.5136054" cy="1.90978435" rx="2.1122449" ry="1.90978435"></ellipse>
                            <ellipse id="Oval-Copy-12" cx="11.9693878" cy="37.6386665" rx="1.95578231" ry="1.9893587"></ellipse>
                        </g>
                        <path d="M14.0831586,27.6139414 C14.0482604,27.0417141 14.6161817,26.5778322 15.3520089,26.5778322 L31.1580624,26.5778322 C31.8937273,26.5778322 32.4617802,27.042219 32.4269127,27.6139414 L31.8060058,37.7949658 C31.8060058,42.6108972 28.4348617,44.9917193 23.2550357,44.9917193 C18.0752096,44.9917193 14.7040655,42.4595119 14.7040655,37.7949658 L14.0831586,27.6139414 Z" id="Rectangle-Copy-2" fill="#3A3A3A"></path>
                        <path d="M14.6104365,27.552079 C14.5776219,27.0140174 15.1116347,26.5778322 15.8035283,26.5778322 L30.6658594,26.5778322 C31.3576005,26.5778322 31.8917369,27.0144921 31.8589513,27.552079 L31.2751165,37.1252312 C31.0471882,40.862576 27.4482946,43.8922926 23.2346939,43.8922926 C19.0220194,43.8922926 15.4221332,40.8614882 15.1942713,37.1252312 L14.6104365,27.552079 Z" id="Rectangle" fill="#A67A5E"></path>
                        <g id="Oval-2" transform="translate(14.551020, 26.577832)">
                            <mask id="mask-2" fill="white">
                                <use xlink:href="#path-1"></use>
                            </mask>
                            <use id="Mask" fill="#BD8A6B" xlink:href="#path-1"></use>
                            <ellipse fill="#B18164" mask="url(#mask-2)" cx="13.0646259" cy="8.14419091" rx="9.77891156" ry="13.6656763"></ellipse>
                        </g>
                        <g id="Group-4" transform="translate(20.027211, 38.991430)">
                            <path d="M0,1.32659349 C0,1.06439284 0.197003932,0.784994976 0.444235701,0.703458495 C0.444235701,0.703458495 2.45068528,0 3.37690803,0 C4.30313077,0 6.13645173,0.695597139 6.13645173,0.695597139 C6.37668281,0.78188615 6.57142857,1.05843081 6.57142857,1.32659349 L6.57142857,5.13516078 L5.64879597,6.22230643 C5.47681559,6.42495235 5.12125812,6.58922933 4.86044908,6.58922933 L1.79421366,6.58922933 C1.53080208,6.58922933 1.1762944,6.43361852 0.998391743,6.23723989 L0,5.13516078 L0,1.32659349 Z" id="Rectangle-2" fill="#3A3A3A"></path>
                            <path d="M1.25170068,1.38925661 C1.25170068,1.30649256 1.31369483,1.22033571 1.40856894,1.19192012 C1.40856894,1.19192012 2.66259409,0.795743479 3.36394558,0.795743479 C4.06529707,0.795743479 5.33052501,1.19523767 5.33052501,1.19523767 C5.41097383,1.21962732 5.47619048,1.30294098 5.47619048,1.38925661 L5.47619048,1.97230967 C5.47619048,2.62227907 4.95818511,3.14918338 4.29943455,3.14918338 L2.42845661,3.14918338 C1.77855225,3.14918338 1.25170068,2.62732642 1.25170068,1.97230967 L1.25170068,1.38925661 Z" id="Rectangle-3" fill="#B08064"></path>
                            <path d="M2.61687951,3.1024814 C2.64061916,2.97114539 2.77537734,2.86467652 2.90120443,2.86467652 L3.67022414,2.86467652 C3.80351281,2.86467652 3.93150369,2.9749864 3.95454906,3.1024814 L3.95454906,3.1024814 C3.97828871,3.23381741 3.88582298,3.34028628 3.76244856,3.34028628 L2.80898001,3.34028628 C2.67914619,3.34028628 2.59383415,3.2299764 2.61687951,3.1024814 L2.61687951,3.1024814 Z" id="Rectangle-4" fill="#3A3A3A"></path>
                        </g>
                        <ellipse id="Oval-3" fill="#373738" cx="18.8537415" cy="33.6599491" rx="1.0170068" ry="1.03446652"></ellipse>
                        <ellipse id="Oval-3-Copy" fill="#373738" cx="27.1462585" cy="33.6599491" rx="1.0170068" ry="1.03446652"></ellipse>
                        <g id="Group" transform="translate(13.455782, 24.827197)" fill="#3A3A3A">
                            <ellipse id="Oval" cx="9.77891156" cy="2.78510218" rx="1.95578231" ry="1.9893587"></ellipse>
                            <ellipse id="Oval-Copy-2" cx="8.13605442" cy="1.75063565" rx="1.56462585" ry="1.59148696"></ellipse>
                            <ellipse id="Oval-Copy-4" cx="16.1156463" cy="1.75063565" rx="1.56462585" ry="1.59148696"></ellipse>
                            <ellipse id="Oval-Copy-5" cx="3.28571429" cy="1.75063565" rx="1.56462585" ry="1.59148696"></ellipse>
                            <ellipse id="Oval-Copy-6" cx="5.71088435" cy="1.19361522" rx="1.17346939" ry="1.19361522"></ellipse>
                            <ellipse id="Oval-Copy-8" cx="1.17346939" cy="2.62595348" rx="1.17346939" ry="1.19361522"></ellipse>
                            <ellipse id="Oval-Copy-9" cx="18.3843537" cy="2.46680478" rx="1.17346939" ry="1.19361522"></ellipse>
                            <ellipse id="Oval-Copy-7" cx="13.6904762" cy="1.19361522" rx="1.17346939" ry="1.19361522"></ellipse>
                            <ellipse id="Oval-Copy-3" cx="11.2653061" cy="1.75063565" rx="1.56462585" ry="1.59148696"></ellipse>
                        </g>
                    </g>
                    <ellipse id="Oval-4" fill="#BD8A6B" cx="14.8639456" cy="33.5803748" rx="1.56462585" ry="1.59148696"></ellipse>
                    <ellipse id="Oval-4-Copy" fill="#B18164" cx="31.6054422" cy="33.5803748" rx="1.56462585" ry="1.59148696"></ellipse>
                    <path d="M14.3429473,32.643407 C14.9687976,32.643407 14.8787305,32.6404972 14.8787305,31.937334 C14.8787305,31.2341708 14.3035401,30.7156983 13.6122449,30.7156983 C12.9209497,30.7156983 13.259296,33.6531895 13.259296,33.6531895 C13.259296,33.6531895 13.4469421,32.643407 13.6122449,32.643407 C13.9266427,32.643407 13.9954076,32.643407 14.3429473,32.643407 Z" id="Oval-Copy-30" fill="#3A3A3A"></path>
                    <path d="M32.7718838,32.4842583 C33.3977342,32.4842583 33.307667,32.4813485 33.307667,31.7781853 C33.307667,31.0750221 32.7324767,30.5565496 32.0411815,30.5565496 C31.3498863,30.5565496 31.6882325,33.4940408 31.6882325,33.4940408 C31.6882325,33.4940408 31.8758787,32.4842583 32.0411815,32.4842583 C32.3555793,32.4842583 32.4243442,32.4842583 32.7718838,32.4842583 Z" id="Oval-Copy-31" fill="#3A3A3A" transform="translate(32.458804, 32.025295) scale(-1, 1) translate(-32.458804, -32.025295) "></path>
                </g>
            </g>
        </g>
    </g>
</svg>