<?xml version="1.0" encoding="UTF-8"?>
<svg width="149px" height="47px" viewBox="0 0 149 47" version="1.1" xmlns="http://www.w3.org/2000/svg" xmlns:xlink="http://www.w3.org/1999/xlink">
    <!-- Generator: Sketch 42 (36781) - http://www.bohemiancoding.com/sketch -->
    <title>White</title>
    <desc>Created with Sketch.</desc>
    <defs>
        <rect id="path-1" x="0" y="0" width="141" height="39" rx="5.56239416"></rect>
        <filter x="-50%" y="-50%" width="200%" height="200%" filterUnits="objectBoundingBox" id="filter-2">
            <feOffset dx="0" dy="2" in="SourceAlpha" result="shadowOffsetOuter1"></feOffset>
            <feGaussianBlur stdDeviation="2" in="shadowOffsetOuter1" result="shadowBlurOuter1"></feGaussianBlur>
            <feColorMatrix values="0 0 0 0 0   0 0 0 0 0   0 0 0 0 0  0 0 0 0.140087183 0" type="matrix" in="shadowBlurOuter1"></feColorMatrix>
        </filter>
        <path d="M10.2039474,0 C4.56845179,0 0,4.23432789 0,9.45767101 C0,12.4340032 1.48381891,15.0888323 3.80271314,16.8224872 L3.80271314,20.4285714 L7.27706411,18.519824 C8.20429256,18.7766946 9.18659681,18.9153437 10.2039474,18.9153437 C15.8394429,18.9153437 20.4078947,14.6810184 20.4078947,9.45767101 C20.4078947,4.23432789 15.8394429,0 10.2039474,0 L10.2039474,0 Z M11.2180029,12.7363333 L8.61948267,9.96208223 L3.54919905,12.7363333 L9.12651257,6.80952381 L11.7884121,9.58377488 L16.795319,6.80952381 L11.2180029,12.7363333 L11.2180029,12.7363333 Z" id="path-3"></path>
    </defs>
    <g id="Page-1" stroke="none" stroke-width="1" fill="none" fill-rule="evenodd">
        <g id="Desktop-HD" transform="translate(-646.000000, -1125.000000)">
            <g id="White" transform="translate(650.000000, 1127.000000)">
                <g id="Rectangle-Copy">
                    <use fill="black" fill-opacity="1" filter="url(#filter-2)" xlink:href="#path-1"></use>
                    <use fill="#FFFFFF" fill-rule="evenodd" xlink:href="#path-1"></use>
                </g>
                <g id="Group-Copy" transform="translate(12.059211, 9.783972)">
                    <g id="Page-1" transform="translate(0.000000, 0.430314)">
                        <mask id="mask-4" fill="white">
                            <use xlink:href="#path-3"></use>
                        </mask>
                        <g id="Clip-2"></g>
                        <polygon id="Fill-1" fill="#007FFF" mask="url(#mask-4)" points="-2.12582237 -2.12797619 22.5337171 -2.12797619 22.5337171 22.5565476 -2.12582237 22.5565476"></polygon>
                    </g>
                    <path d="M37.7054151,14.7439024 L39.3727143,14.7439024 L39.3727143,3.71535371 L36.9884764,3.71535371 L33.7539158,11.6354059 L30.5193552,3.71535371 L28.1351172,3.71535371 L28.1351172,14.7439024 L29.8024165,14.7439024 L29.8024165,5.98058786 L33.4037829,14.7439024 L34.1040486,14.7439024 L37.7054151,5.98058786 L37.7054151,14.7439024 Z M45.4750297,14.9423171 C46.7755231,14.9423171 47.9092866,14.5289532 48.7095902,13.7518291 L48.0093245,12.7762903 C47.4090968,13.3880689 46.4754092,13.71876 45.6250866,13.71876 C44.0078063,13.71876 43.0074267,12.5944102 42.8907158,11.2385766 L49.259799,11.2385766 L49.259799,10.8748164 C49.259799,8.42770212 47.7592297,6.55929731 45.3416457,6.55929731 C42.9907537,6.55929731 41.3067815,8.42770212 41.3067815,10.7425399 C41.3067815,13.2557924 43.0741187,14.9423171 45.4750297,14.9423171 Z M47.7925756,10.1638305 L42.8740428,10.1638305 C42.9574078,9.0725498 43.7243654,7.78285444 45.3416457,7.78285444 C47.042291,7.78285444 47.7592297,9.10561891 47.7925756,10.1638305 Z M50.4435815,13.7022254 C51.2605581,14.5289532 52.4443406,14.9423171 53.794853,14.9423171 C55.9123231,14.9423171 57.0460866,13.867571 57.0460866,12.4952028 C57.0460866,10.6598672 55.3787873,10.2795724 53.9782559,9.96541581 C52.9778764,9.73393203 52.1108808,9.50244825 52.1108808,8.8079969 C52.1108808,8.16314923 52.7444545,7.76631989 53.761507,7.76631989 C54.7785596,7.76631989 55.6789012,8.17968378 56.145745,8.74185868 L56.8126647,7.70018166 C56.129072,7.05533399 55.1286924,6.55929731 53.744834,6.55929731 C51.7774209,6.55929731 50.6770034,7.650578 50.6770034,8.92373879 C50.6770034,10.6433326 52.2776107,11.0070928 53.6447961,11.3212494 C54.6785216,11.5527332 55.5955362,11.8172861 55.5955362,12.6109447 C55.5955362,13.2888615 54.9953085,13.7518291 53.861545,13.7518291 C52.7778005,13.7518291 51.7107289,13.2061887 51.1605202,12.6109447 L50.4435815,13.7022254 Z M58.2465421,13.7022254 C59.0635187,14.5289532 60.2473012,14.9423171 61.5978136,14.9423171 C63.7152837,14.9423171 64.8490472,13.867571 64.8490472,12.4952028 C64.8490472,10.6598672 63.1817479,10.2795724 61.7812165,9.96541581 C60.780837,9.73393203 59.9138413,9.50244825 59.9138413,8.8079969 C59.9138413,8.16314923 60.5474151,7.76631989 61.5644676,7.76631989 C62.5815202,7.76631989 63.4818618,8.17968378 63.9487056,8.74185868 L64.6156253,7.70018166 C63.9320326,7.05533399 62.931653,6.55929731 61.5477946,6.55929731 C59.5803815,6.55929731 58.479964,7.650578 58.479964,8.92373879 C58.479964,10.6433326 60.0805713,11.0070928 61.4477567,11.3212494 C62.4814822,11.5527332 63.3984968,11.8172861 63.3984968,12.6109447 C63.3984968,13.2888615 62.7982691,13.7518291 61.6645056,13.7518291 C60.580761,13.7518291 59.5136895,13.2061887 58.9634808,12.6109447 L58.2465421,13.7022254 Z M71.7183202,14.7439024 L73.2188895,14.7439024 L73.2188895,9.35363724 C73.2188895,7.31988688 71.7349932,6.55929731 69.9843289,6.55929731 C68.6838355,6.55929731 67.583418,6.98919576 66.6830764,7.86552722 L67.3333231,8.89066968 C68.0502618,8.17968378 68.8338924,7.83245811 69.750907,7.83245811 C70.9013435,7.83245811 71.7183202,8.42770212 71.7183202,9.41977547 L71.7183202,10.7425399 C71.1014194,10.031554 70.1677318,9.68432836 69.0839873,9.68432836 C67.7334749,9.68432836 66.2829245,10.477987 66.2829245,12.2967882 C66.2829245,14.0494511 67.7501479,14.9423171 69.0839873,14.9423171 C70.1677318,14.9423171 71.0847464,14.5620223 71.7183202,13.867571 L71.7183202,14.7439024 Z M71.7183202,12.9912395 C71.2681494,13.5864835 70.4845187,13.9006401 69.6508691,13.9006401 C68.5671245,13.9006401 67.8001669,13.2557924 67.8001669,12.3133227 C67.8001669,11.3708531 68.5671245,10.7260054 69.6508691,10.7260054 C70.4845187,10.7260054 71.2681494,11.0401619 71.7183202,11.6354059 L71.7183202,12.9912395 Z M75.5531085,16.7941874 C76.5201421,17.7035879 77.5038486,17.9846754 78.854361,17.9846754 C80.8384472,17.9846754 82.8558793,17.1744821 82.8558793,14.4297459 L82.8558793,6.75771198 L81.35531,6.75771198 L81.35531,7.91513089 C80.7050632,7.05533399 79.7547027,6.55929731 78.7043041,6.55929731 C76.62018,6.55929731 75.1196107,8.11354556 75.1196107,10.6764017 C75.1196107,13.2888615 76.62018,14.8100407 78.7043041,14.8100407 C79.7880486,14.8100407 80.7384092,14.2313312 81.35531,13.4376725 L81.35531,14.4793495 C81.35531,16.1658742 80.1048355,16.7611182 78.854361,16.7611182 C77.7539435,16.7611182 76.9369669,16.4634962 76.2700472,15.7029067 L75.5531085,16.7941874 Z M81.35531,12.2967882 C80.9384851,12.9416359 80.0214705,13.4872762 79.1211289,13.4872762 C77.6205596,13.4872762 76.686872,12.3298573 76.686872,10.6764017 C76.686872,9.03948068 77.6205596,7.88206178 79.1211289,7.88206178 C80.0214705,7.88206178 80.9384851,8.41116756 81.35531,9.05601524 L81.35531,12.2967882 Z M88.9081756,14.9423171 C90.2086691,14.9423171 91.3424326,14.5289532 92.1427362,13.7518291 L91.4424705,12.7762903 C90.8422428,13.3880689 89.9085552,13.71876 89.0582326,13.71876 C87.4409523,13.71876 86.4405727,12.5944102 86.3238618,11.2385766 L92.692945,11.2385766 L92.692945,10.8748164 C92.692945,8.42770212 91.1923756,6.55929731 88.7747917,6.55929731 C86.4238997,6.55929731 84.7399275,8.42770212 84.7399275,10.7425399 C84.7399275,13.2557924 86.5072647,14.9423171 88.9081756,14.9423171 Z M91.2257216,10.1638305 L86.3071888,10.1638305 C86.3905537,9.0725498 87.1575114,7.78285444 88.7747917,7.78285444 C90.475437,7.78285444 91.1923756,9.10561891 91.2257216,10.1638305 Z M98.9119713,10.4283834 C98.9119713,13.1400505 100.479233,14.9423171 103.597082,14.9423171 C106.714932,14.9423171 108.26552,13.1565851 108.26552,10.4118488 L108.26552,3.71535371 L106.581548,3.71535371 L106.581548,10.3787797 C106.581548,12.2637191 105.547822,13.4707416 103.597082,13.4707416 C101.646342,13.4707416 100.595944,12.2637191 100.595944,10.3787797 L100.595944,3.71535371 L98.9119713,3.71535371 L98.9119713,10.4283834 Z M110.016184,13.7022254 C110.833161,14.5289532 112.016944,14.9423171 113.367456,14.9423171 C115.484926,14.9423171 116.61869,13.867571 116.61869,12.4952028 C116.61869,10.6598672 114.95139,10.2795724 113.550859,9.96541581 C112.550479,9.73393203 111.683484,9.50244825 111.683484,8.8079969 C111.683484,8.16314923 112.317057,7.76631989 113.33411,7.76631989 C114.351163,7.76631989 115.251504,8.17968378 115.718348,8.74185868 L116.385268,7.70018166 C115.701675,7.05533399 114.701295,6.55929731 113.317437,6.55929731 C111.350024,6.55929731 110.249606,7.650578 110.249606,8.92373879 C110.249606,10.6433326 111.850214,11.0070928 113.217399,11.3212494 C114.251125,11.5527332 115.168139,11.8172861 115.168139,12.6109447 C115.168139,13.2888615 114.567911,13.7518291 113.434148,13.7518291 C112.350403,13.7518291 111.283332,13.2061887 110.733123,12.6109447 L110.016184,13.7022254 Z" id="Message-Us" fill="#007FFF"></path>
                </g>
            </g>
        </g>
    </g>
</svg>